<?xml version="1.0" encoding="UTF-8"?>
<svg id="Calque_2" data-name="Calque 2" xmlns="http://www.w3.org/2000/svg" viewBox="0 0 466.04 610.41">
  <g id="Calque_1-2" data-name="Calque 1">
    <g>
      <path d="M405.92,193.26c0,11.91-9.66,21.55-21.57,21.55h-77.04c-10.04,0-18.74-6.92-21.01-16.69l-17.33-74.52-14.8,73.89-34.4,171.67c-1.99,9.96-10.65,17.18-20.82,17.33h-.32c-10.02,0-18.74-6.9-21.01-16.68l-36.01-154.99h-59.91c-11.93,0-21.57-9.64-21.57-21.57s9.64-21.57,21.57-21.57h77.04c10.04,0,18.74,6.92,21.01,16.69l17.33,74.54,14.78-73.75c0-.06,0-.09.02-.15L246.27,17.33c1.99-9.96,10.67-17.16,20.82-17.33h.34c10.02,0,18.72,6.9,21.01,16.69l36,154.98h59.91c11.91,0,21.57,9.66,21.57,21.59Z" style="fill: #132e49;"/>
      <circle cx="444.41" cy="193.26" r="21.63" style="fill: #ea8b49;"/>
      <circle cx="21.63" cy="193.26" r="21.63" style="fill: #ea8b49;"/>
    </g>
    <g>
      <path d="M35.8,472.89l29.77,99.03h.4l30.36-99.03h35.52l-49.61,135.34h-32.55L.68,472.89h35.13Z" style="fill: #132e49;"/>
      <path d="M176.11,487.57c0,9.33-7.34,16.67-16.67,16.67s-16.67-7.34-16.67-16.67,7.74-16.67,16.67-16.67,16.67,7.74,16.67,16.67ZM174.72,515.95v92.28h-30.76v-92.28h30.76Z" style="fill: #132e49;"/>
      <path d="M233.66,488.56v27.39h22.62v22.82h-21.83v35.52c0,6.55,2.58,10.91,10.52,10.91,3.37,0,6.35-.79,11.31-3.37v24.81c-7.34,2.58-14.69,3.77-22.62,3.77-19.65,0-29.97-9.92-29.97-25.6v-46.04h-15.08v-22.82h16.87l2.78-27.39h25.4Z" style="fill: #132e49;"/>
      <path d="M359.77,550.88v26.79c0,13.69,3.18,23.81,8.34,30.56h-33.93c-2.18-3.77-3.37-7.94-4.17-12.7-11.11,11.71-18.65,14.88-28.38,14.88-18.46,0-33.74-12.3-33.74-30.76s17.66-28.58,63.5-33.14c-3.97-7.34-10.52-11.31-20.04-11.31-11.31,0-22.82,4.17-33.93,11.31v-24.21c16.47-6.95,29.57-8.53,38.3-8.53,28.38,0,44.06,14.69,44.06,37.11ZM310.55,587.99c10.72,0,20.44-9.13,22.23-25.8l-13.1,2.78c-8.73,1.79-20.64,4.56-20.64,12.7s6.75,10.32,11.51,10.32Z" style="fill: #132e49;"/>
      <path d="M410.27,472.89v135.34h-30.76v-135.34h30.76Z" style="fill: #132e49;"/>
      <path d="M466.04,472.89v135.34h-30.76v-135.34h30.76Z" style="fill: #132e49;"/>
    </g>
  </g>
</svg>