<svg width="23" height="24" viewBox="0 0 23 24" fill="none" xmlns="http://www.w3.org/2000/svg">
<path d="M22.0238 4.93586V21.0464C22.0238 21.8598 21.6921 22.5943 21.1551 23.1313C20.6182 23.6683 19.8838 24 19.0625 24H3.5377C1.59512 24 0 22.4048 0 20.462V4.93586C0 4.12244 0.33166 3.38799 0.868632 2.84307C1.4056 2.30605 2.13999 1.97437 2.96125 1.97437H19.0704C19.8838 1.97437 20.6182 2.30605 21.163 2.84307C21.7 3.38009 22.0317 4.12244 22.0317 4.93586H22.0238Z" fill="#FFBB8C"/>
<path d="M16.3936 0H5.6226C4.5323 0 3.64844 0.883939 3.64844 1.97433V1.98223C3.64844 3.07262 4.5323 3.95656 5.6226 3.95656H16.3936C17.4839 3.95656 18.3678 3.07262 18.3678 1.98223V1.97433C18.3678 0.883939 17.4839 0 16.3936 0Z" fill="#132E49"/>
<path d="M6.64904 12.4463V15.005C6.64904 15.1314 6.58586 15.2498 6.48321 15.3367C6.38055 15.4236 6.23841 15.471 6.08048 15.471H3.07975C2.70071 15.471 2.40063 15.2183 2.40063 14.9103V12.4463C2.40063 12.3199 2.46381 12.2015 2.56646 12.1146C2.66912 12.0277 2.81126 11.9803 2.96919 11.9803H6.08048C6.23841 11.9803 6.38055 12.0356 6.48321 12.1146C6.58586 12.2015 6.64904 12.3199 6.64904 12.4463Z" fill="#9D4C1B"/>
<path d="M13.14 12.4463V15.005C13.14 15.1314 13.0768 15.2498 12.9742 15.3367C12.8715 15.4236 12.7294 15.471 12.5714 15.471H9.57071C9.19167 15.471 8.8916 15.2183 8.8916 14.9103V12.4463C8.8916 12.3199 8.95477 12.2015 9.05743 12.1146C9.16009 12.0277 9.30223 11.9803 9.46016 11.9803H12.5714C12.7294 11.9803 12.8715 12.0356 12.9742 12.1146C13.0768 12.2015 13.14 12.3199 13.14 12.4463Z" fill="#132E49"/>
<path d="M19.6232 12.4463V15.005C19.6232 15.1314 19.56 15.2498 19.4573 15.3367C19.3547 15.4236 19.2125 15.471 19.0546 15.471H16.0539C15.6748 15.471 15.3748 15.2183 15.3748 14.9103V12.4463C15.3748 12.3199 15.4379 12.2015 15.5406 12.1146C15.6432 12.0277 15.7854 11.9803 15.9433 11.9803H19.0546C19.2125 11.9803 19.3547 12.0356 19.4573 12.1146C19.56 12.2015 19.6232 12.3199 19.6232 12.4463Z" fill="#132E49"/>
<path d="M6.64904 17.4137V19.9724C6.64904 20.0988 6.58586 20.2172 6.48321 20.3041C6.38055 20.391 6.23841 20.4384 6.08048 20.4384H3.07975C2.70071 20.4384 2.40063 20.1857 2.40063 19.8777V17.4137C2.40063 17.2873 2.46381 17.1689 2.56646 17.082C2.66912 16.9951 2.81126 16.9478 2.96919 16.9478H6.08048C6.23841 16.9478 6.38055 17.003 6.48321 17.082C6.58586 17.1689 6.64904 17.2873 6.64904 17.4137Z" fill="#132E49"/>
<path d="M13.14 17.4137V19.9724C13.14 20.0988 13.0768 20.2172 12.9742 20.3041C12.8715 20.391 12.7294 20.4384 12.5714 20.4384H9.57071C9.19167 20.4384 8.8916 20.1857 8.8916 19.8777V17.4137C8.8916 17.2873 8.95477 17.1689 9.05743 17.082C9.16009 16.9951 9.30223 16.9478 9.46016 16.9478H12.5714C12.7294 16.9478 12.8715 17.003 12.9742 17.082C13.0768 17.1689 13.14 17.2873 13.14 17.4137Z" fill="#132E49"/>
<path d="M19.6232 17.4137V19.9724C19.6232 20.0988 19.56 20.2172 19.4573 20.3041C19.3547 20.391 19.2125 20.4384 19.0546 20.4384H16.0539C15.6748 20.4384 15.3748 20.1857 15.3748 19.8777V17.4137C15.3748 17.2873 15.4379 17.1689 15.5406 17.082C15.6432 16.9951 15.7854 16.9478 15.9433 16.9478H19.0546C19.2125 16.9478 19.3547 17.003 19.4573 17.082C19.56 17.1689 19.6232 17.2873 19.6232 17.4137Z" fill="#132E49"/>
</svg>
