<svg width="23" height="24" viewBox="0 0 23 24" fill="none" xmlns="http://www.w3.org/2000/svg">
<path d="M5.63805 12.7615C8.7413 12.7615 11.2602 15.2791 11.2602 18.3807V23.9999H0.0158691V18.3807C0.0158691 15.2791 2.53479 12.7615 5.63805 12.7615Z" fill="#EA8B49"/>
<path d="M5.60639 11.2068C8.70271 11.2068 11.2128 8.6981 11.2128 5.60342C11.2128 2.50874 8.70271 0 5.60639 0C2.51007 0 0 2.50874 0 5.60342C0 8.6981 2.51007 11.2068 5.60639 11.2068Z" fill="#EA8B49"/>
<path d="M16.8902 12.7615C19.9935 12.7615 22.5124 15.2791 22.5124 18.3807V23.9999H11.2681V18.3807C11.2681 15.2791 13.787 12.7615 16.8902 12.7615Z" fill="#FFBB8C"/>
<path d="M16.8112 11.2383C19.9075 11.2383 22.4176 8.7296 22.4176 5.63491C22.4176 2.54023 19.9075 0.0314941 16.8112 0.0314941C13.7149 0.0314941 11.2048 2.54023 11.2048 5.63491C11.2048 8.7296 13.7149 11.2383 16.8112 11.2383Z" fill="#FFBB8C"/>
</svg>
