<svg width="24" height="20" viewBox="0 0 24 20" fill="none" xmlns="http://www.w3.org/2000/svg">
<path d="M20.9038 10.001C20.9038 10.6173 20.4063 11.1162 19.793 11.1162H15.8255C15.3088 11.1162 14.8606 10.758 14.7438 10.2522L13.8514 6.39566L13.0892 10.2195L11.3177 19.1032C11.2151 19.6185 10.7689 19.9926 10.2453 20H10.2291C9.71335 20 9.26419 19.6428 9.14734 19.1369L7.29254 11.1162H4.20712C3.5928 11.1162 3.09631 10.6173 3.09631 10C3.09631 9.38268 3.5928 8.88377 4.20712 8.88377H8.17458C8.69128 8.88377 9.13945 9.24197 9.2563 9.74782L10.1487 13.6053L10.9099 9.78845C10.9099 9.78547 10.9099 9.78349 10.9109 9.78052L12.6824 0.89675C12.785 0.38149 13.2321 0.00842251 13.7548 0H13.772C14.2877 0 14.7359 0.357214 14.8537 0.864051L16.7076 8.88377H19.793C20.4063 8.88377 20.9038 9.38367 20.9038 10.001Z" fill="#FDFDFC"/>
<path d="M22.8862 11.1207C23.5013 11.1207 24 10.6196 24 10.0015C24 9.38341 23.5013 8.88232 22.8862 8.88232C22.2711 8.88232 21.7725 9.38341 21.7725 10.0015C21.7725 10.6196 22.2711 11.1207 22.8862 11.1207Z" fill="#FDFDFC"/>
<path d="M1.11377 11.1207C1.72889 11.1207 2.22754 10.6196 2.22754 10.0015C2.22754 9.38341 1.72889 8.88232 1.11377 8.88232C0.498651 8.88232 0 9.38341 0 10.0015C0 10.6196 0.498651 11.1207 1.11377 11.1207Z" fill="#FDFDFC"/>
</svg>
